<mxfile host="app.diagrams.net" modified="2023-04-13T05:28:06.488Z" agent="Mozilla/5.0 (Windows NT 10.0; Win64; x64) AppleWebKit/537.36 (KHTML, like Gecko) Chrome/111.0.0.0 Safari/537.36" version="21.1.5" etag="A0t0rLXgav8AHcEJBIhJ" type="github">
  <diagram name="Page-1" id="TRs3a6ePmZ4o2RwMk032">
    <mxGraphModel>
      <root>
        <mxCell id="0" />
        <mxCell id="1" parent="0" />
      </root>
    </mxGraphModel>
  </diagram>
</mxfile>
